<svg width="96" height="70" viewBox="0 0 96 70" fill="none" xmlns="http://www.w3.org/2000/svg">
<circle opacity="0.2" cx="48" cy="35" r="32" fill="#CEE1FF"/>
<path d="M82.26 42.72H13.44C12.65 42.72 12.01 42.08 12.01 41.29V32.58H83.68V41.29C83.68 42.08 83.04 42.72 82.25 42.72H82.26Z" fill="#A4A9AE"/>
<path d="M82.26 38.43H13.44C12.65 38.43 12.01 37.79 12.01 37V28.29H83.68V37C83.68 37.79 83.04 38.43 82.25 38.43H82.26Z" fill="#E1E2E7"/>
<g opacity="0.2">
<path d="M13.03 17.21H82.67C83.23 17.21 83.69 17.67 83.69 18.23V36.06C83.69 36.62 83.23 37.08 82.67 37.08H13.03C12.47 37.08 12.01 36.62 12.01 36.06V18.23C12.01 17.66 12.47 17.21 13.03 17.21Z" fill="black"/>
</g>
<path d="M13.03 17H82.67C83.23 17 83.69 17.46 83.69 18.02V35.85C83.69 36.41 83.23 36.87 82.67 36.87H13.03C12.47 36.87 12.01 36.41 12.01 35.85V18.02C12.01 17.46 12.47 17 13.03 17Z" fill="#D3D4D9"/>
<path d="M83.68 18.02V27.76C83.68 28.32 83.02 28.77 82.66 28.86C65.76 33.03 29.92 33.03 13.02 28.86C12.66 28.77 12 28.32 12 27.76V18.02C12.01 17.46 12.47 17 13.03 17H82.66C83.22 17 83.68 17.46 83.68 18.02Z" fill="#D3D4D9"/>
<g opacity="0.5">
<path d="M47.85 31.58C33.81 31.58 21.15 30.44 13.13 28.46C12.88 28.4 12.42 28.07 12.42 27.76V18.02C12.42 17.68 12.7 17.41 13.03 17.41H82.66C83 17.41 83.27 17.68 83.27 18.02V27.76C83.27 28.07 82.81 28.4 82.56 28.46C74.53 30.44 61.88 31.58 47.84 31.58H47.85Z" fill="white"/>
</g>
<path d="M78.24 36.87H17.45V37.86H78.24V36.87Z" fill="#A4A9AE"/>
<path d="M78.4502 42.7197H78.0402V39.3397H17.6502V42.7197H17.2402V38.9297H78.4502V42.7197Z" fill="#4A4349"/>
<path d="M82.29 39.75H79.91C79.6836 39.75 79.5 39.9336 79.5 40.16V41.31C79.5 41.5364 79.6836 41.72 79.91 41.72H82.29C82.5164 41.72 82.7 41.5364 82.7 41.31V40.16C82.7 39.9336 82.5164 39.75 82.29 39.75Z" fill="#E1E2E7"/>
<g opacity="0.3">
<path d="M82.29 41.5204H79.91C79.68 41.5204 79.5 41.3404 79.5 41.1104V41.3104C79.5 41.5304 79.68 41.7204 79.91 41.7204H82.29C82.52 41.7204 82.7 41.5404 82.7 41.3104V41.1104C82.7 41.3404 82.52 41.5204 82.29 41.5204Z" fill="black"/>
</g>
<g opacity="0.5">
<path d="M82.29 39.75H79.91C79.68 39.75 79.5 39.93 79.5 40.16V40.36C79.5 40.13 79.68 39.95 79.91 39.95H82.29C82.52 39.95 82.7 40.13 82.7 40.36V40.16C82.7 39.93 82.52 39.75 82.29 39.75Z" fill="white"/>
</g>
<path d="M48.8304 45.8299L48.2204 56.2199H47.4704L46.8704 45.8299H48.8304Z" fill="#B1CF13"/>
<path d="M47.8503 54.8099L50.6703 53.0899L50.7303 53.1899L48.9003 57.7899C48.5503 59.3899 48.1903 60.9999 47.8403 62.5999C47.4903 60.9999 47.1303 59.3899 46.7803 57.7899L44.9503 53.1899L45.0003 53.0899L47.8403 54.8099H47.8503Z" fill="#B1CF13"/>
<path d="M38.7503 46.5199L28.5203 55.7999L28.0803 55.3599L37.3603 45.1299L38.7503 46.5199Z" fill="#B1CF13"/>
<path d="M29.2903 54.5904L32.5003 55.3703L32.4803 55.4804L27.9303 57.4403C26.5503 58.3203 25.1603 59.2104 23.7803 60.0904C24.6603 58.7104 25.5503 57.3203 26.4303 55.9403L28.3903 51.3904L28.4903 51.3604L29.2803 54.5804L29.2903 54.5904Z" fill="#B1CF13"/>
<path d="M67.1803 55.7999L56.9503 46.5199L58.3303 45.1299L67.6103 55.3599L67.1803 55.7999Z" fill="#B1CF13"/>
<path d="M66.4006 54.5904L63.1906 55.3703L63.2106 55.4804L67.7606 57.4403C69.1406 58.3203 70.5306 59.2104 71.9106 60.0904C71.0206 58.7104 70.1406 57.3203 69.2606 55.9403L67.3006 51.3904L67.2006 51.3604L66.4106 54.5804L66.4006 54.5904Z" fill="#B1CF13"/>
</svg>
