<svg width="28" height="24" viewBox="0 0 28 24" fill="none" xmlns="http://www.w3.org/2000/svg">
<rect width="28" height="24" rx="4" fill="#FF5B5D"/>
<path d="M14.433 7.5L19.196 15.75C19.2399 15.826 19.263 15.9122 19.263 16C19.263 16.0878 19.2399 16.174 19.196 16.25C19.1522 16.326 19.0891 16.3891 19.013 16.433C18.937 16.4769 18.8508 16.5 18.763 16.5H9.23705C9.14928 16.5 9.06306 16.4769 8.98705 16.433C8.91104 16.3891 8.84793 16.326 8.80404 16.25C8.76016 16.174 8.73706 16.0878 8.73706 16C8.73706 15.9122 8.76016 15.826 8.80405 15.75L13.567 7.5C13.6109 7.424 13.6741 7.36088 13.7501 7.317C13.8261 7.27312 13.9123 7.25002 14 7.25002C14.0878 7.25002 14.174 7.27312 14.25 7.317C14.326 7.36088 14.3892 7.424 14.433 7.5ZM13.5 14V15H14.5V14H13.5ZM13.5 10.5V13H14.5V10.5H13.5Z" fill="white"/>
</svg>
