<svg width="30" height="30" viewBox="0 0 30 30" fill="none" xmlns="http://www.w3.org/2000/svg">
<path d="M15 27.5C12.1458 27.5 9.76583 26.5208 7.86 24.5625C5.95417 22.6042 5.00083 20.1667 5 17.25C5 15.9583 5.29167 14.6667 5.875 13.375C6.45833 12.0833 7.1875 10.8437 8.0625 9.65625C8.9375 8.46875 9.88542 7.35417 10.9063 6.3125C11.9271 5.27083 12.875 4.36458 13.75 3.59375C13.9167 3.42708 14.1096 3.3075 14.3288 3.235C14.5479 3.1625 14.7717 3.12583 15 3.125C15.2283 3.12417 15.4525 3.16083 15.6725 3.235C15.8925 3.30917 16.085 3.42875 16.25 3.59375C17.125 4.36458 18.0729 5.27083 19.0938 6.3125C20.1146 7.35417 21.0625 8.46875 21.9375 9.65625C22.8125 10.8437 23.5417 12.0833 24.125 13.375C24.7083 14.6667 25 15.9583 25 17.25C25 20.1667 24.0471 22.6042 22.1413 24.5625C20.2354 26.5208 17.855 27.5 15 27.5ZM18.125 22.5C18.6458 22.5 19.0888 22.3179 19.4538 21.9537C19.8188 21.5896 20.0008 21.1467 20 20.625C19.9992 20.1033 19.8171 19.6608 19.4538 19.2975C19.0904 18.9342 18.6475 18.7517 18.125 18.75C17.6025 18.7483 17.16 18.9308 16.7975 19.2975C16.435 19.6642 16.2525 20.1067 16.25 20.625C16.2475 21.1433 16.43 21.5862 16.7975 21.9537C17.165 22.3212 17.6075 22.5033 18.125 22.5ZM10.9375 21.5625C11.1875 21.8125 11.4792 21.9375 11.8125 21.9375C12.1458 21.9375 12.4375 21.8125 12.6875 21.5625L19.0625 15.1875C19.3125 14.9375 19.4375 14.6458 19.4375 14.3125C19.4375 13.9792 19.3125 13.6875 19.0625 13.4375C18.8125 13.1875 18.5158 13.0625 18.1725 13.0625C17.8292 13.0625 17.5321 13.1875 17.2813 13.4375L10.9375 19.7812C10.6875 20.0312 10.5625 20.3283 10.5625 20.6725C10.5625 21.0167 10.6875 21.3133 10.9375 21.5625ZM11.875 16.25C12.3958 16.25 12.8388 16.0679 13.2038 15.7037C13.5688 15.3396 13.7508 14.8967 13.75 14.375C13.7492 13.8533 13.5671 13.4108 13.2038 13.0475C12.8404 12.6842 12.3975 12.5017 11.875 12.5C11.3525 12.4983 10.91 12.6808 10.5475 13.0475C10.185 13.4142 10.0025 13.8567 10 14.375C9.9975 14.8933 10.18 15.3362 10.5475 15.7037C10.915 16.0712 11.3575 16.2533 11.875 16.25Z" fill="#14A63B"/>
</svg>
