<svg width="98" height="72" viewBox="0 0 98 72" fill="none" xmlns="http://www.w3.org/2000/svg">
<circle opacity="0.2" cx="49" cy="36" r="32" fill="#CEE1FF"/>
<g clip-path="url(#clip0_161_6387)">
<path opacity="0.4" d="M59.1898 15.4351C59.1898 13.9161 57.9775 12.6847 56.482 12.6847C56.149 12.6847 55.8303 12.7462 55.5358 12.8576C55.5655 12.6942 55.5819 12.5261 55.5819 12.3543C55.5819 10.8353 54.3696 9.60395 52.8741 9.60395C52.3859 9.60395 51.9282 9.73572 51.5327 9.96562C51.2843 9.66916 50.9145 9.48068 50.5013 9.48068C50.1398 9.48068 49.8118 9.62467 49.5691 9.85899C49.5845 9.77647 49.5929 9.69123 49.5929 9.60395C49.5929 8.84463 48.9867 8.22861 48.2388 8.22861C47.4909 8.22861 46.8847 8.84429 46.8847 9.60395C46.8847 9.61686 46.8854 9.62976 46.8857 9.64267C46.5995 9.53807 46.2909 9.48068 45.9689 9.48068C44.8305 9.48068 43.8569 10.1945 43.4564 11.2051C42.9896 10.9813 42.4684 10.8557 41.9184 10.8557C39.9257 10.8557 38.3102 12.4966 38.3102 14.5206C38.3102 16.0222 39.1999 17.312 40.4724 17.8784C40.3286 18.2143 40.2484 18.5845 40.2484 18.974C40.2484 20.1225 40.9418 21.1063 41.9261 21.5178C41.9211 21.5854 41.9177 21.6533 41.9177 21.7219C41.9177 23.2409 43.13 24.4723 44.6255 24.4723C45.0167 24.4723 45.3878 24.3874 45.7235 24.2356C47.0144 27.1381 48.1234 30.8159 48.203 35.0869C48.2277 36.4123 48.1508 37.6634 48.0061 38.8306H50.1111C49.9667 37.6634 49.8898 36.4123 49.9142 35.0869C49.9914 30.9381 51.0402 27.3497 52.2833 24.4872C52.9901 24.2797 53.5782 23.7873 53.9189 23.1404C54.4164 23.4033 54.9811 23.5527 55.5806 23.5527C57.5732 23.5527 59.1888 21.9118 59.1888 19.8878C59.1888 18.9638 58.8514 18.1202 58.2958 17.4757C58.8441 16.9724 59.1888 16.2443 59.1888 15.4347L59.1898 15.4351Z" fill="#9DC3FF"/>
<path d="M46.9305 35.1549H51.0694C50.9801 34.7137 50.8908 34.3032 50.8035 33.9249C50.8009 33.9133 50.7982 33.9021 50.7955 33.8906C50.7878 33.8569 50.7798 33.8233 50.7721 33.79C50.7681 33.7724 50.7638 33.7547 50.7598 33.7374C50.7534 33.7106 50.747 33.6841 50.741 33.6576C50.7367 33.6393 50.7323 33.6209 50.728 33.6026C50.722 33.5771 50.716 33.5517 50.7096 33.5262C50.7069 33.5153 50.7042 33.5044 50.7019 33.4936C50.6621 33.3282 50.6227 33.1696 50.5846 33.0188C50.1813 32.8891 49.6203 32.8086 49.0001 32.8086C48.3799 32.8086 47.8189 32.8891 47.4157 33.0188C47.3729 33.1879 47.3287 33.3662 47.2836 33.5537C47.2836 33.5537 47.2836 33.5547 47.2833 33.5554C47.2622 33.6437 47.2408 33.734 47.2194 33.8264C47.2171 33.8369 47.2144 33.8474 47.2121 33.858C47.207 33.8804 47.2017 33.9024 47.1967 33.9249C47.1094 34.3032 47.0201 34.7137 46.9309 35.1549H46.9305Z" fill="#76AFE3"/>
<path d="M43.3494 36.6291H54.6501C54.4064 36.2739 54.1623 35.9428 53.9239 35.6382C53.9166 35.629 53.9096 35.6198 53.9022 35.6107C53.8808 35.5835 53.8597 35.5563 53.8383 35.5299C53.827 35.5156 53.8159 35.5017 53.8046 35.4874C53.7875 35.466 53.7705 35.4446 53.7534 35.4232C53.7414 35.4083 53.7297 35.3937 53.7176 35.3791C53.7009 35.3584 53.6842 35.338 53.6678 35.3176C53.6608 35.3088 53.6538 35.3 53.6464 35.2915C53.5374 35.158 53.4301 35.0303 53.3258 34.9087C52.2248 34.8042 50.6932 34.7393 48.9994 34.7393C47.3057 34.7393 45.7744 34.8042 44.673 34.9087C44.556 35.0449 44.4357 35.1886 44.313 35.3397C44.313 35.3397 44.3123 35.3404 44.312 35.341C44.2541 35.412 44.1959 35.485 44.1371 35.5594C44.1304 35.5679 44.1237 35.5764 44.117 35.5849C44.103 35.6029 44.089 35.6205 44.0746 35.6389C43.8365 35.9438 43.5921 36.2746 43.3484 36.6298L43.3494 36.6291Z" fill="#AAD2F7"/>
<path d="M57.7058 39.1063C57.3551 38.6004 57.0044 38.1266 56.6617 37.6879C56.6503 37.6736 56.6393 37.6593 56.6279 37.6451C56.5948 37.603 56.5617 37.5609 56.5286 37.5191C56.5109 37.497 56.4935 37.4749 56.4761 37.4529C56.4494 37.4193 56.423 37.386 56.3962 37.353C56.3778 37.3299 56.3591 37.3072 56.3407 37.2841C56.3146 37.2522 56.2889 37.2203 56.2631 37.1887C56.2521 37.1751 56.2411 37.1615 56.23 37.1479C56.0605 36.9404 55.8937 36.7418 55.7312 36.5526C54.018 36.39 51.6355 36.2891 49.0006 36.2891C46.3656 36.2891 43.9831 36.39 42.27 36.5526C42.0877 36.7645 41.9005 36.9883 41.7096 37.223C41.7096 37.223 41.7086 37.2243 41.7079 37.225C41.618 37.3357 41.5274 37.4488 41.4361 37.5646C41.4258 37.5778 41.4154 37.5911 41.405 37.604C41.383 37.6318 41.3612 37.6597 41.3392 37.6879C40.9965 38.1266 40.6457 38.6004 40.2947 39.1063C42.9477 39.361 45.8952 39.5026 48.9999 39.5026C52.1046 39.5026 55.0525 39.3607 57.7055 39.106L57.7058 39.1063Z" fill="white"/>
<path d="M49 39.2092C45.9702 39.2092 43.0912 39.0737 40.4884 38.8306C40.4238 38.9216 40.3593 39.0133 40.2944 39.1067C42.9474 39.3614 45.895 39.503 48.9997 39.503C52.1044 39.503 55.0522 39.361 57.7052 39.1063C57.6407 39.0133 57.5762 38.9213 57.5113 38.8303C54.9085 39.0734 52.0295 39.2089 48.9993 39.2089L49 39.2092Z" fill="#AAD2F7"/>
<path opacity="0.45" d="M62.0511 55.6692C62.0635 55.5843 62.0758 55.4994 62.0872 55.4135C62.0999 55.3181 62.1119 55.223 62.1233 55.1279C62.1267 55.0987 62.13 55.0699 62.1333 55.041C62.1414 54.9727 62.1487 54.9045 62.1561 54.8362C62.1594 54.8057 62.1628 54.7751 62.1658 54.7445C62.1741 54.663 62.1818 54.5819 62.1892 54.5007C62.1905 54.4864 62.1919 54.4718 62.1932 54.4576C62.2009 54.3683 62.2079 54.2793 62.2146 54.1903C62.2173 54.1547 62.2196 54.1194 62.2219 54.084C62.226 54.0263 62.2296 53.9689 62.233 53.9115C62.2353 53.8728 62.2377 53.8338 62.2397 53.795C62.243 53.7363 62.2457 53.6772 62.2484 53.6188C62.2507 53.5651 62.253 53.5115 62.255 53.4578C62.2574 53.3957 62.2597 53.3335 62.2614 53.2717C62.2627 53.2252 62.2637 53.179 62.2647 53.1328C62.2657 53.0904 62.2664 53.0476 62.2674 53.0052C62.2681 52.9559 62.2691 52.9067 62.2694 52.8574C62.2698 52.8201 62.2698 52.7824 62.2701 52.745C62.2704 52.6414 62.2701 52.5382 62.2688 52.4353C62.2688 52.4126 62.2684 52.3898 62.2681 52.3674C62.2671 52.3107 62.2661 52.2543 62.2647 52.1979C62.2641 52.1684 62.2634 52.1392 62.2624 52.1096C62.2607 52.0526 62.2591 51.9955 62.2571 51.9388C62.2561 51.9144 62.255 51.8903 62.254 51.8662C62.0484 46.6398 59.8789 42.2438 57.705 39.1074C55.052 39.3621 52.1041 39.504 48.9991 39.504C45.8941 39.504 42.9462 39.3621 40.2932 39.1074C38.1203 42.2432 35.9504 46.6395 35.7448 51.8655C35.7438 51.8896 35.7428 51.914 35.7418 51.9382C35.7398 51.9949 35.7381 52.0519 35.7364 52.109C35.7358 52.1382 35.7351 52.1677 35.7341 52.1973C35.7328 52.2536 35.7314 52.3103 35.7308 52.3667C35.7304 52.3895 35.7304 52.4122 35.7301 52.4346C35.7288 52.5375 35.7284 52.6408 35.7288 52.7443C35.7288 52.7817 35.7288 52.8191 35.7294 52.8567C35.7298 52.906 35.7304 52.9552 35.7314 53.0045C35.7321 53.0469 35.7331 53.0897 35.7341 53.1322C35.7351 53.1783 35.7361 53.2245 35.7375 53.271C35.7391 53.3329 35.7415 53.395 35.7438 53.4571C35.7458 53.5108 35.7482 53.5645 35.7505 53.6181C35.7532 53.6769 35.7562 53.7356 35.7592 53.7944C35.7612 53.8331 35.7635 53.8718 35.7659 53.9108C35.7692 53.9682 35.7732 54.0256 35.7769 54.0834C35.7792 54.1187 35.7816 54.1543 35.7843 54.1896C35.7909 54.2779 35.798 54.3666 35.8057 54.4555C35.807 54.4708 35.8083 54.4858 35.81 54.501C35.8174 54.5819 35.825 54.6627 35.8331 54.7439C35.8361 54.7744 35.8394 54.805 35.8428 54.8356C35.8501 54.9038 35.8575 54.9717 35.8655 55.0403C35.8688 55.0692 35.8722 55.0984 35.8755 55.1273C35.8869 55.2223 35.8989 55.3174 35.9116 55.4129C35.923 55.4984 35.9354 55.5837 35.9478 55.6686C35.9494 55.6791 35.9511 55.6896 35.9524 55.7001C35.9638 55.7766 35.9755 55.853 35.9879 55.929C35.9885 55.9324 35.9889 55.9358 35.9895 55.9392C36.148 56.9264 36.3707 57.8583 36.6375 58.7324C40.108 59.2645 44.3795 59.5786 48.9988 59.5786C53.618 59.5786 57.8896 59.2645 61.36 58.7324C61.6268 57.8583 61.8495 56.9264 62.008 55.9392C62.0086 55.9358 62.009 55.9324 62.0096 55.929C62.0217 55.853 62.0337 55.7769 62.0451 55.7001C62.0468 55.6896 62.0484 55.6791 62.0498 55.6686L62.0511 55.6692Z" fill="white"/>
<path opacity="0.4" d="M47.4531 39.4911V59.5671C47.964 59.5749 48.4796 59.579 49.0001 59.579C49.5207 59.579 50.0362 59.5749 50.5471 59.5671V39.4911C50.0362 39.4989 49.5207 39.5033 49.0001 39.5033C48.4796 39.5033 47.9643 39.4989 47.4531 39.4911Z" fill="url(#paint0_linear_161_6387)"/>
<path opacity="0.85" d="M62.0093 55.9399C62.0099 55.9365 62.0103 55.9331 62.0109 55.9297C62.023 55.8536 62.035 55.7776 62.0464 55.7008C62.0481 55.6903 62.0497 55.6798 62.0511 55.6692C62.0634 55.5843 62.0758 55.4994 62.0872 55.4135C62.0999 55.3181 62.1119 55.223 62.1233 55.1279C62.1266 55.0987 62.13 55.0699 62.1333 55.041C62.1413 54.9727 62.1487 54.9045 62.1561 54.8362C62.1594 54.8057 62.1627 54.7751 62.1657 54.7445C62.1741 54.663 62.1818 54.5819 62.1891 54.5007C62.1905 54.4864 62.1918 54.4718 62.1932 54.4576C62.2009 54.3683 62.2079 54.2793 62.2146 54.1903C62.2172 54.1547 62.2196 54.1193 62.2219 54.084C62.2259 54.0263 62.2296 53.9689 62.2329 53.9115C62.2353 53.8728 62.2376 53.8338 62.2396 53.795C62.243 53.7363 62.2457 53.6772 62.2483 53.6188C62.2507 53.5651 62.253 53.5115 62.255 53.4578C62.2574 53.3957 62.2597 53.3335 62.2614 53.2717C62.2627 53.2252 62.2637 53.179 62.2647 53.1328C62.2657 53.0904 62.2664 53.0476 62.2674 53.0051C62.2681 52.9559 62.2691 52.9067 62.2694 52.8574C62.2697 52.8201 62.2697 52.7824 62.2701 52.745C62.2704 52.6414 62.2701 52.5382 62.2687 52.4353C62.2687 52.4126 62.2684 52.3898 62.2681 52.3674C62.2671 52.3107 62.266 52.2543 62.2647 52.1979C62.264 52.1684 62.2634 52.1392 62.2624 52.1096C62.2607 52.0526 62.259 51.9955 62.257 51.9388C62.256 51.9144 62.255 51.8903 62.254 51.8662C62.2005 50.5058 62.0136 49.2021 61.7288 47.9615C60.9778 47.6739 59.7555 47.3459 58.3078 47.5187C56.6067 47.7218 56.5535 48.383 55.2155 48.3042C53.7945 48.2206 53.6049 47.4606 52.3157 47.5092C50.9951 47.5591 50.9279 48.4927 49.5701 48.5086C48.0402 48.5266 47.6125 47.6413 46.0174 47.645C44.4326 47.6484 44.3551 48.5232 42.7195 48.5786C41.0819 48.6339 40.6743 47.7731 39.0173 47.6596C38.3536 47.6141 37.4031 47.6831 36.2088 48.2349C35.9581 49.3929 35.7939 50.6053 35.7444 51.8662C35.7434 51.8903 35.7424 51.9147 35.7414 51.9388C35.7394 51.9955 35.7378 52.0526 35.7361 52.1096C35.7354 52.1388 35.7347 52.1684 35.7337 52.1979C35.7324 52.2543 35.7311 52.311 35.7304 52.3674C35.7301 52.3901 35.7301 52.4129 35.7297 52.4353C35.7284 52.5382 35.7281 52.6414 35.7284 52.745C35.7284 52.7824 35.7284 52.8197 35.7291 52.8574C35.7294 52.9067 35.7301 52.9559 35.7311 53.0051C35.7317 53.0476 35.7327 53.0904 35.7337 53.1328C35.7347 53.179 35.7357 53.2252 35.7371 53.2717C35.7388 53.3335 35.7411 53.3957 35.7434 53.4578C35.7454 53.5115 35.7478 53.5651 35.7501 53.6188C35.7528 53.6775 35.7558 53.7363 35.7588 53.795C35.7608 53.8338 35.7632 53.8725 35.7655 53.9115C35.7688 53.9689 35.7729 54.0263 35.7765 54.084C35.7789 54.1193 35.7812 54.155 35.7839 54.1903C35.7906 54.2786 35.7976 54.3672 35.8053 54.4562C35.8066 54.4715 35.808 54.4864 35.8096 54.5017C35.817 54.5825 35.8247 54.6634 35.8327 54.7445C35.8357 54.7751 35.8391 54.8057 35.8424 54.8362C35.8498 54.9045 35.8571 54.9724 35.8651 55.041C35.8685 55.0699 35.8718 55.0991 35.8752 55.1279C35.8865 55.223 35.8986 55.3181 35.9113 55.4135C35.9226 55.4991 35.935 55.5843 35.9474 55.6692C35.9491 55.6798 35.9507 55.6903 35.9521 55.7008C35.9634 55.7772 35.9751 55.8536 35.9875 55.9297C35.9882 55.9331 35.9885 55.9365 35.9892 55.9399C36.1477 56.9271 36.3703 57.8589 36.6371 58.733C40.1076 59.2652 44.3791 59.5793 48.9984 59.5793C53.6176 59.5793 57.8892 59.2652 61.3596 58.733C61.6265 57.8589 61.8491 56.9271 62.0076 55.9399H62.0093Z" fill="url(#paint1_linear_161_6387)"/>
<path opacity="0.5" d="M42.8893 58.2175C42.9713 58.2175 43.0377 58.15 43.0377 58.0668C43.0377 57.9835 42.9713 57.916 42.8893 57.916C42.8073 57.916 42.7408 57.9835 42.7408 58.0668C42.7408 58.15 42.8073 58.2175 42.8893 58.2175Z" fill="white"/>
<g opacity="0.5">
<path opacity="0.5" d="M40.7008 56.7143C40.9011 56.6294 40.9956 56.3957 40.9119 56.1924C40.8283 55.989 40.5982 55.893 40.398 55.978C40.1978 56.0629 40.1033 56.2966 40.1869 56.4999C40.2706 56.7033 40.5006 56.7993 40.7008 56.7143Z" fill="white"/>
<path opacity="0.5" d="M49.6454 54.3281C49.6735 54.1096 49.522 53.9093 49.3068 53.8807C49.0917 53.8521 48.8945 54.006 48.8663 54.2245C48.8381 54.443 48.9897 54.6434 49.2048 54.672C49.42 54.7006 49.6172 54.5467 49.6454 54.3281Z" fill="white"/>
<path opacity="0.5" d="M55.412 52.6335C55.4467 52.416 55.3013 52.211 55.0872 52.1757C54.873 52.1404 54.6712 52.2881 54.6364 52.5057C54.6017 52.7232 54.7471 52.9282 54.9613 52.9635C55.1754 52.9988 55.3772 52.8511 55.412 52.6335Z" fill="white"/>
<path opacity="0.5" d="M56.0867 56.499C56.2401 56.3432 56.2401 56.0905 56.0867 55.9347C55.9332 55.7789 55.6845 55.7789 55.5311 55.9347C55.3777 56.0905 55.3777 56.3432 55.5311 56.499C55.6845 56.6548 55.9332 56.6548 56.0867 56.499Z" fill="white"/>
<path opacity="0.5" d="M42.6481 53.1897C42.8651 53.1897 43.041 53.0111 43.041 52.7907C43.041 52.5703 42.8651 52.3917 42.6481 52.3917C42.4311 52.3917 42.2552 52.5703 42.2552 52.7907C42.2552 53.0111 42.4311 53.1897 42.6481 53.1897Z" fill="white"/>
<path opacity="0.5" d="M38.6088 50.7803C38.9906 50.446 39.0332 49.8606 38.704 49.4728C38.3748 49.085 37.7985 49.0417 37.4167 49.3761C37.035 49.7105 36.9923 50.2959 37.3215 50.6836C37.6507 51.0714 38.227 51.1147 38.6088 50.7803Z" fill="white"/>
<path opacity="0.5" d="M46.9875 57.3565C47.1047 56.8585 46.8022 56.3583 46.3119 56.2393C45.8216 56.1203 45.3292 56.4275 45.212 56.9255C45.0949 57.4235 45.3973 57.9237 45.8876 58.0427C46.3779 58.1617 46.8704 57.8545 46.9875 57.3565Z" fill="white"/>
<path opacity="0.5" d="M60.9709 49.5538C61.0866 49.0555 60.7828 48.5562 60.2922 48.4386C59.8016 48.3209 59.31 48.6296 59.1942 49.1279C59.0784 49.6262 59.3822 50.1255 59.8728 50.2431C60.3635 50.3608 60.8551 50.0521 60.9709 49.5538Z" fill="white"/>
<path opacity="0.5" d="M51.6647 50.7415C51.8817 50.7415 52.0576 50.5628 52.0576 50.3424C52.0576 50.1221 51.8817 49.9434 51.6647 49.9434C51.4477 49.9434 51.2719 50.1221 51.2719 50.3424C51.2719 50.5628 51.4477 50.7415 51.6647 50.7415Z" fill="white"/>
<path opacity="0.5" d="M46.0153 49.4319C46.2323 49.4319 46.4081 49.2532 46.4081 49.0329C46.4081 48.8125 46.2323 48.6339 46.0153 48.6339C45.7983 48.6339 45.6224 48.8125 45.6224 49.0329C45.6224 49.2532 45.7983 49.4319 46.0153 49.4319Z" fill="white"/>
<path opacity="0.5" d="M37.4084 57.7307C37.6253 57.7307 37.8012 57.5521 37.8012 57.3317C37.8012 57.1113 37.6253 56.9327 37.4084 56.9327C37.1914 56.9327 37.0155 57.1113 37.0155 57.3317C37.0155 57.5521 37.1914 57.7307 37.4084 57.7307Z" fill="white"/>
<path opacity="0.5" d="M52.6365 57.6172C52.7899 57.4613 52.7899 57.2087 52.6365 57.0529C52.483 56.897 52.2343 56.897 52.0809 57.0529C51.9275 57.2087 51.9275 57.4613 52.0809 57.6172C52.2343 57.773 52.483 57.773 52.6365 57.6172Z" fill="white"/>
<path opacity="0.5" d="M60.5585 54.1756C60.6405 54.1756 60.7069 54.1081 60.7069 54.0249C60.7069 53.9416 60.6405 53.8741 60.5585 53.8741C60.4765 53.8741 60.41 53.9416 60.41 54.0249C60.41 54.1081 60.4765 54.1756 60.5585 54.1756Z" fill="white"/>
<path opacity="0.5" d="M57.9584 52.7182C57.9584 52.8014 57.8919 52.869 57.8099 52.869C57.728 52.869 57.6615 52.8014 57.6615 52.7182C57.6615 52.635 57.728 52.5674 57.8099 52.5674C57.8919 52.5674 57.9584 52.635 57.9584 52.7182Z" fill="white"/>
<path opacity="0.5" d="M53.9896 55.1372C53.9896 55.2204 53.9231 55.2879 53.8412 55.2879C53.7593 55.2879 53.6927 55.2204 53.6927 55.1372C53.6927 55.054 53.7593 54.9864 53.8412 54.9864C53.9231 54.9864 53.9896 55.054 53.9896 55.1372Z" fill="white"/>
<path opacity="0.5" d="M50.1174 56.7716C50.1994 56.7716 50.2659 56.7041 50.2659 56.6208C50.2659 56.5375 50.1994 56.47 50.1174 56.47C50.0355 56.47 49.969 56.5375 49.969 56.6208C49.969 56.7041 50.0355 56.7716 50.1174 56.7716Z" fill="white"/>
<path opacity="0.5" d="M46.9779 51.4696C47.0599 51.4696 47.1264 51.4021 47.1264 51.3188C47.1264 51.2355 47.0599 51.168 46.9779 51.168C46.8959 51.168 46.8295 51.2355 46.8295 51.3188C46.8295 51.4021 46.8959 51.4696 46.9779 51.4696Z" fill="white"/>
<path opacity="0.5" d="M40.8451 50.4315C40.9271 50.4315 40.9936 50.364 40.9936 50.2807C40.9936 50.1975 40.9271 50.1299 40.8451 50.1299C40.7631 50.1299 40.6967 50.1975 40.6967 50.2807C40.6967 50.364 40.7631 50.4315 40.8451 50.4315Z" fill="white"/>
<path opacity="0.5" d="M38.9833 53.8426C39.0653 53.8426 39.1317 53.7751 39.1317 53.6919C39.1317 53.6086 39.0653 53.5411 38.9833 53.5411C38.9013 53.5411 38.8348 53.6086 38.8348 53.6919C38.8348 53.7751 38.9013 53.8426 38.9833 53.8426Z" fill="white"/>
<path opacity="0.5" d="M49.5725 50.0579C49.5725 50.1411 49.506 50.2086 49.4241 50.2086C49.3422 50.2086 49.2756 50.1411 49.2756 50.0579C49.2756 49.9747 49.3422 49.9071 49.4241 49.9071C49.506 49.9071 49.5725 49.9747 49.5725 50.0579Z" fill="white"/>
<path opacity="0.5" d="M55.7053 50.0579C55.7053 50.1411 55.6388 50.2086 55.5569 50.2086C55.475 50.2086 55.4084 50.1411 55.4084 50.0579C55.4084 49.9747 55.475 49.9071 55.5569 49.9071C55.6388 49.9071 55.7053 49.9747 55.7053 50.0579Z" fill="white"/>
<path opacity="0.5" d="M58.7328 57.068C58.8148 57.068 58.8812 57.0005 58.8812 56.9173C58.8812 56.834 58.8148 56.7665 58.7328 56.7665C58.6508 56.7665 58.5844 56.834 58.5844 56.9173C58.5844 57.0005 58.6508 57.068 58.7328 57.068Z" fill="white"/>
<path opacity="0.5" d="M56.9076 54.8434C56.9896 54.8434 57.0561 54.7759 57.0561 54.6926C57.0561 54.6093 56.9896 54.5418 56.9076 54.5418C56.8256 54.5418 56.7592 54.6093 56.7592 54.6926C56.7592 54.7759 56.8256 54.8434 56.9076 54.8434Z" fill="white"/>
<path opacity="0.5" d="M43.1815 55.6591C43.2635 55.6591 43.33 55.5916 43.33 55.5083C43.33 55.425 43.2635 55.3575 43.1815 55.3575C43.0995 55.3575 43.0331 55.425 43.0331 55.5083C43.0331 55.5916 43.0995 55.6591 43.1815 55.6591Z" fill="white"/>
<path opacity="0.5" d="M45.8099 54.1756C45.8919 54.1756 45.9584 54.1081 45.9584 54.0249C45.9584 53.9416 45.8919 53.8741 45.8099 53.8741C45.728 53.8741 45.6615 53.9416 45.6615 54.0249C45.6615 54.1081 45.728 54.1756 45.8099 54.1756Z" fill="white"/>
<path opacity="0.5" d="M37.3407 55.2137C37.4227 55.2137 37.4892 55.1462 37.4892 55.063C37.4892 54.9797 37.4227 54.9122 37.3407 54.9122C37.2587 54.9122 37.1923 54.9797 37.1923 55.063C37.1923 55.1462 37.2587 55.2137 37.3407 55.2137Z" fill="white"/>
<path opacity="0.5" d="M43.4397 50.7622C43.4397 50.8454 43.3732 50.9129 43.2913 50.9129C43.2094 50.9129 43.1428 50.8454 43.1428 50.7622C43.1428 50.679 43.2094 50.6114 43.2913 50.6114C43.3732 50.6114 43.4397 50.679 43.4397 50.7622Z" fill="white"/>
</g>
<path d="M49.0001 59.579C44.3808 59.579 40.1093 59.2648 36.6388 58.7327C36.5726 58.5154 36.5088 58.2946 36.4482 58.0702C37.4703 61.8569 39.3583 64.6416 40.6519 66.2608C40.6636 66.2778 40.6777 66.2947 40.6927 66.3117C40.6937 66.3127 40.6944 66.3137 40.6954 66.3151C41.3447 67.0378 44.8155 67.5896 49.0004 67.5896C53.1854 67.5896 56.6562 67.0378 57.3054 66.3148C57.3054 66.3148 57.3071 66.3131 57.3081 66.312C57.3232 66.2951 57.3369 66.2784 57.3489 66.2611C58.6421 64.6419 60.5302 61.8576 61.5526 58.0708C61.4921 58.295 61.4285 58.516 61.3623 58.733C57.8919 59.2652 53.6203 59.5793 49.0011 59.5793L49.0001 59.579Z" fill="white"/>
<g opacity="0.5">
<path d="M61.4302 58.5004C61.4074 58.5782 61.3844 58.656 61.361 58.733C61.361 58.733 61.361 58.733 61.3613 58.733C61.3847 58.6563 61.4074 58.5782 61.4302 58.5004Z" fill="#CCCCCC"/>
<path d="M61.4551 58.4155C61.4878 58.3014 61.5203 58.1863 61.5514 58.0705C61.5199 58.1866 61.4878 58.3014 61.4551 58.4155Z" fill="#CCCCCC"/>
<path d="M61.4302 58.5008C61.4385 58.4726 61.4469 58.4447 61.4553 58.4162C61.4472 58.4447 61.4385 58.4726 61.4302 58.5008Z" fill="#CCCCCC"/>
<path d="M36.5445 58.4155C36.5118 58.3014 36.4793 58.1863 36.4482 58.0705C36.4797 58.1866 36.5118 58.3014 36.5445 58.4155Z" fill="#CCCCCC"/>
<path d="M36.5702 58.5015C36.5618 58.4726 36.5528 58.4441 36.5444 58.4152C36.5528 58.4441 36.5615 58.4726 36.5702 58.5015Z" fill="#CCCCCC"/>
<path d="M36.6384 58.7334C36.6384 58.7334 36.6384 58.7334 36.6387 58.7334C36.6153 58.657 36.5926 58.5796 36.5698 58.5021C36.5926 58.5796 36.615 58.6566 36.6384 58.7331V58.7334Z" fill="#CCCCCC"/>
<path d="M49.0001 60.2832C53.513 60.2832 57.6936 59.9833 61.1199 59.4733C61.2035 59.2311 61.2841 58.9842 61.361 58.7326C57.8905 59.2647 53.619 59.5789 49.0001 59.5789C44.3812 59.5789 40.1093 59.2651 36.6392 58.7326C36.7161 58.9842 36.7963 59.2311 36.8802 59.4733C40.3065 59.9833 44.4871 60.2832 49.0001 60.2832Z" fill="#AAD2F7"/>
</g>
<path opacity="0.3" d="M51.7499 61.8584H46.2497C46.1219 61.8584 46.0183 61.9636 46.0183 62.0934V65.4995C46.0183 65.6293 46.1219 65.7345 46.2497 65.7345H51.7499C51.8777 65.7345 51.9813 65.6293 51.9813 65.4995V62.0934C51.9813 61.9636 51.8777 61.8584 51.7499 61.8584Z" fill="#AAD2F7"/>
<path d="M51.7499 61.6162H46.2493C45.9902 61.6162 45.7795 61.8302 45.7795 62.0934V65.4998C45.7795 65.763 45.9902 65.9769 46.2493 65.9769H51.7499C52.009 65.9769 52.2196 65.763 52.2196 65.4998V62.0934C52.2196 61.8302 52.009 61.6162 51.7499 61.6162ZM51.9812 65.4998C51.9812 65.6295 51.8776 65.7348 51.7499 65.7348H46.2493C46.1216 65.7348 46.0179 65.6295 46.0179 65.4998V62.0934C46.0179 61.9636 46.1216 61.8584 46.2493 61.8584H51.7499C51.8776 61.8584 51.9812 61.9636 51.9812 62.0934V65.4998Z" fill="#76AFE3"/>
<path opacity="0.85" d="M48.1626 65.2586C48.1897 65.2219 48.2061 65.1764 48.2061 65.1272V63.8995L48.0984 63.8163L47.9687 63.9169L47.8513 64.0079V64.9428L48.1626 65.2589V65.2586Z" fill="url(#paint2_linear_161_6387)"/>
<path opacity="0.1" d="M46.5935 62.3344C46.5664 62.371 46.55 62.4162 46.55 62.4658V63.7049L46.6577 63.7881L46.7874 63.6876L46.9048 63.5966V62.6502L46.5935 62.334V62.3344Z" fill="#4399E8"/>
<path opacity="0.1" d="M47.9102 63.7053L47.7852 63.6085H46.971L46.846 63.7053L46.7209 63.8021L46.846 63.8989L46.971 63.9957H47.7852L47.9102 63.8989L48.0356 63.8021L47.9102 63.7053Z" fill="#4399E8"/>
<path opacity="0.85" d="M48.1255 62.295C48.0887 62.2651 48.0419 62.2471 47.9911 62.2471H46.765C46.7125 62.2471 46.6644 62.2665 46.627 62.298L46.9392 62.6152H47.8102L48.1255 62.295Z" fill="url(#paint3_linear_161_6387)"/>
<path opacity="0.85" d="M47.8513 62.6434V63.5966L47.9686 63.6876L48.0984 63.7882L48.206 63.705V62.4658C48.206 62.4145 48.1886 62.3676 48.1595 62.3303L47.851 62.6437L47.8513 62.6434Z" fill="url(#paint4_linear_161_6387)"/>
<g opacity="0.1">
<path d="M47.8169 64.9776H46.9322L46.6233 65.2914C46.6611 65.325 46.7106 65.3457 46.7651 65.3457H47.9911C48.0436 65.3457 48.0917 65.3263 48.1292 65.2947L47.8169 64.9776Z" fill="#4399E8"/>
<path d="M46.9048 64.9357V64.008L46.7874 63.917L46.6577 63.8164L46.55 63.8996V65.1273C46.55 65.1748 46.5651 65.2186 46.5905 65.2546L46.9048 64.9354V64.9357Z" fill="#4399E8"/>
</g>
<g opacity="0.1">
<path opacity="0.1" d="M51.4277 63.7691C51.4414 63.7508 51.4498 63.7277 51.4498 63.7026V63.0821L51.3953 63.04L51.3298 63.0906L51.2703 63.1365V63.6089L51.4277 63.7688V63.7691Z" fill="#4399E8"/>
<path opacity="0.85" d="M50.6347 62.2909C50.621 62.3093 50.6127 62.3324 50.6127 62.3575V62.9837L50.6672 63.0258L50.7327 62.9752L50.7922 62.9294V62.4512L50.6347 62.2913V62.2909Z" fill="url(#paint5_linear_161_6387)"/>
<path opacity="0.1" d="M51.3006 62.9845L51.2371 62.9356H50.8258L50.7626 62.9845L50.6991 63.0334L50.7626 63.0823L50.8258 63.1312H51.2371L51.3006 63.0823L51.3638 63.0334L51.3006 62.9845Z" fill="url(#paint6_linear_161_6387)"/>
<path opacity="0.85" d="M51.409 62.2712C51.3903 62.2559 51.3669 62.2471 51.3411 62.2471H50.7216C50.6952 62.2471 50.6708 62.2569 50.6517 62.2729L50.8095 62.4332H51.2499L51.4094 62.2712H51.409Z" fill="url(#paint7_linear_161_6387)"/>
<path opacity="0.1" d="M51.2703 62.4475V62.9293L51.3298 62.9752L51.3953 63.0258L51.4498 62.9837V62.3575C51.4498 62.3317 51.4411 62.3079 51.4264 62.2892L51.2706 62.4475H51.2703Z" fill="#4399E8"/>
<path d="M51.2529 63.6269H50.8059L50.6498 63.7855C50.6688 63.8025 50.6939 63.813 50.7213 63.813H51.3409C51.3673 63.813 51.3917 63.8031 51.4107 63.7872L51.2529 63.6269Z" fill="#23B5FD"/>
<path opacity="0.85" d="M50.7922 63.6055V63.1365L50.7327 63.0907L50.6672 63.0401L50.6127 63.0822V63.7026C50.6127 63.7267 50.6204 63.7488 50.6331 63.7671L50.7919 63.6058L50.7922 63.6055Z" fill="url(#paint8_linear_161_6387)"/>
</g>
<path opacity="0.1" d="M50.1941 65.2586C50.2212 65.2219 50.2375 65.1764 50.2375 65.1272V63.8995L50.1299 63.8163L50.0002 63.9169L49.8828 64.0079V64.9428L50.1941 65.2589V65.2586Z" fill="#4399E8"/>
<path opacity="0.1" d="M48.625 62.3344C48.5979 62.371 48.5815 62.4162 48.5815 62.4658V63.7049L48.6892 63.7881L48.8189 63.6876L48.9363 63.5966V62.6502L48.625 62.334V62.3344Z" fill="#4399E8"/>
<path opacity="0.85" d="M49.9417 63.7053L49.8166 63.6085H49.0025L48.8775 63.7053L48.7521 63.8021L48.8775 63.8989L49.0025 63.9957H49.8166L49.9417 63.8989L50.0667 63.8021L49.9417 63.7053Z" fill="url(#paint9_linear_161_6387)"/>
<path opacity="0.85" d="M50.1566 62.295C50.1198 62.2651 50.073 62.2471 50.0222 62.2471H48.7962C48.7437 62.2471 48.6955 62.2665 48.6581 62.298L48.9704 62.6152H49.8413L50.1566 62.295Z" fill="url(#paint10_linear_161_6387)"/>
<path opacity="0.85" d="M49.8828 62.6434V63.5966L50.0001 63.6876L50.1299 63.7882L50.2375 63.705V62.4658C50.2375 62.4145 50.2201 62.3676 50.191 62.3303L49.8824 62.6437L49.8828 62.6434Z" fill="url(#paint11_linear_161_6387)"/>
<g opacity="0.85">
<path d="M49.8484 64.9776H48.9637L48.6548 65.2914C48.6926 65.325 48.742 65.3457 48.7965 65.3457H50.0226C50.0751 65.3457 50.1232 65.3263 50.1607 65.2947L49.8484 64.9776Z" fill="url(#paint12_linear_161_6387)"/>
<path d="M48.9363 64.9357V64.008L48.8189 63.917L48.6892 63.8164L48.5815 63.8996V65.1273C48.5815 65.1748 48.5966 65.2186 48.622 65.2546L48.9363 64.9354V64.9357Z" fill="url(#paint13_linear_161_6387)"/>
</g>
<path d="M53.5243 61.9835C53.5618 61.8221 53.4634 61.6604 53.3045 61.6223C53.1457 61.5843 52.9865 61.6842 52.949 61.8456C52.9115 62.0069 53.0099 62.1686 53.1688 62.2067C53.3276 62.2448 53.4868 62.1448 53.5243 61.9835Z" fill="#76AFE3"/>
<path d="M53.2368 62.1211C53.3478 62.1211 53.4378 62.0297 53.4378 61.917C53.4378 61.8043 53.3478 61.7129 53.2368 61.7129C53.1259 61.7129 53.0359 61.8043 53.0359 61.917C53.0359 62.0297 53.1259 62.1211 53.2368 62.1211Z" fill="#AAD2F7"/>
<path d="M54.4451 62.1293C54.5605 62.0121 54.5605 61.822 54.4451 61.7047C54.3297 61.5875 54.1425 61.5875 54.0271 61.7047C53.9117 61.822 53.9117 62.0121 54.0271 62.1293C54.1425 62.2465 54.3297 62.2465 54.4451 62.1293Z" fill="#76AFE3"/>
<path d="M54.2359 62.1211C54.3468 62.1211 54.4368 62.0297 54.4368 61.917C54.4368 61.8043 54.3468 61.7129 54.2359 61.7129C54.1249 61.7129 54.0349 61.8043 54.0349 61.917C54.0349 62.0297 54.1249 62.1211 54.2359 62.1211Z" fill="#AAD2F7"/>
<g opacity="0.9">
<path opacity="0.5" d="M42.8226 16.6759C42.8575 16.4584 42.7122 16.2534 42.498 16.2179C42.2839 16.1825 42.082 16.3301 42.0472 16.5476C42.0123 16.7651 42.1576 16.9702 42.3718 17.0056C42.5859 17.041 42.7878 16.8934 42.8226 16.6759Z" fill="#26B9FD"/>
<path opacity="0.5" d="M48.5902 15.7179C48.6251 15.5004 48.4798 15.2954 48.2656 15.2599C48.0515 15.2245 47.8496 15.3721 47.8147 15.5896C47.7799 15.8071 47.9252 16.0122 48.1393 16.0476C48.3535 16.083 48.5553 15.9354 48.5902 15.7179Z" fill="#26B9FD"/>
<path opacity="0.5" d="M49.2307 21.1878C49.4247 21.0893 49.5034 20.8496 49.4064 20.6525C49.3094 20.4554 49.0734 20.3755 48.8793 20.474C48.6853 20.5725 48.6066 20.8122 48.7036 21.0093C48.8006 21.2064 49.0366 21.2863 49.2307 21.1878Z" fill="#26B9FD"/>
<path opacity="0.5" d="M44.8441 13.8284C45.0611 13.8284 45.237 13.6497 45.237 13.4294C45.237 13.209 45.0611 13.0303 44.8441 13.0303C44.6272 13.0303 44.4513 13.209 44.4513 13.4294C44.4513 13.6497 44.6272 13.8284 44.8441 13.8284Z" fill="#26B9FD"/>
<path opacity="0.5" d="M45.8164 20.7041C45.9698 20.5483 45.9698 20.2956 45.8164 20.1398C45.663 19.984 45.4142 19.984 45.2608 20.1398C45.1074 20.2956 45.1074 20.5483 45.2608 20.7041C45.4142 20.8599 45.663 20.8599 45.8164 20.7041Z" fill="#26B9FD"/>
<path opacity="0.5" d="M47.1691 18.2241C47.1691 18.3073 47.1026 18.3749 47.0206 18.3749C46.9387 18.3749 46.8722 18.3073 46.8722 18.2241C46.8722 18.1409 46.9387 18.0733 47.0206 18.0733C47.1026 18.0733 47.1691 18.1409 47.1691 18.2241Z" fill="#26B9FD"/>
<path opacity="0.5" d="M43.297 19.8583C43.379 19.8583 43.4455 19.7908 43.4455 19.7075C43.4455 19.6242 43.379 19.5567 43.297 19.5567C43.215 19.5567 43.1486 19.6242 43.1486 19.7075C43.1486 19.7908 43.215 19.8583 43.297 19.8583Z" fill="#26B9FD"/>
<path opacity="0.5" d="M41.7824 13.144C41.7824 13.2272 41.7158 13.2948 41.6339 13.2948C41.552 13.2948 41.4855 13.2272 41.4855 13.144C41.4855 13.0608 41.552 12.9932 41.6339 12.9932C41.7158 12.9932 41.7824 13.0608 41.7824 13.144Z" fill="#26B9FD"/>
<path opacity="0.5" d="M48.818 12.2954C48.818 12.3786 48.7515 12.4461 48.6696 12.4461C48.5877 12.4461 48.5211 12.3786 48.5211 12.2954C48.5211 12.2122 48.5877 12.1446 48.6696 12.1446C48.7515 12.1446 48.818 12.2122 48.818 12.2954Z" fill="#26B9FD"/>
<path opacity="0.5" d="M50.087 17.9295C50.169 17.9295 50.2355 17.862 50.2355 17.7788C50.2355 17.6955 50.169 17.628 50.087 17.628C50.0051 17.628 49.9386 17.6955 49.9386 17.7788C49.9386 17.862 50.0051 17.9295 50.087 17.9295Z" fill="#26B9FD"/>
<path opacity="0.5" d="M51.8508 15.5905C51.8856 15.373 51.7402 15.168 51.526 15.1327C51.3118 15.0974 51.11 15.2451 51.0753 15.4626C51.0405 15.6802 51.1859 15.8851 51.4001 15.9204C51.6143 15.9557 51.8161 15.808 51.8508 15.5905Z" fill="#26B9FD"/>
<path opacity="0.5" d="M57.6189 15.7868C57.6537 15.5693 57.5082 15.3643 57.2941 15.329C57.0799 15.2937 56.8781 15.4414 56.8433 15.6589C56.8086 15.8765 56.954 16.0814 57.1682 16.1167C57.3823 16.152 57.5841 16.0043 57.6189 15.7868Z" fill="#26B9FD"/>
<path opacity="0.5" d="M58.2934 19.6523C58.4469 19.4965 58.4469 19.2439 58.2934 19.088C58.14 18.9322 57.8913 18.9322 57.7379 19.088C57.5845 19.2439 57.5845 19.4965 57.7379 19.6523C57.8913 19.8082 58.14 19.8082 58.2934 19.6523Z" fill="#26B9FD"/>
<path opacity="0.5" d="M53.8715 13.8958C54.0885 13.8958 54.2643 13.7171 54.2643 13.4967C54.2643 13.2764 54.0885 13.0977 53.8715 13.0977C53.6545 13.0977 53.4786 13.2764 53.4786 13.4967C53.4786 13.7171 53.6545 13.8958 53.8715 13.8958Z" fill="#26B9FD"/>
<path opacity="0.5" d="M54.8437 20.7715C54.9972 20.6156 54.9972 20.363 54.8437 20.2072C54.6903 20.0513 54.4416 20.0513 54.2882 20.2072C54.1347 20.363 54.1347 20.6156 54.2882 20.7715C54.4416 20.9273 54.6903 20.9273 54.8437 20.7715Z" fill="#26B9FD"/>
<path opacity="0.5" d="M56.1964 18.2915C56.1964 18.3747 56.1299 18.4422 56.048 18.4422C55.9661 18.4422 55.8995 18.3747 55.8995 18.2915C55.8995 18.2083 55.9661 18.1407 56.048 18.1407C56.1299 18.1407 56.1964 18.2083 56.1964 18.2915Z" fill="#26B9FD"/>
<path opacity="0.5" d="M52.3244 21.0467C52.4063 21.0467 52.4728 20.9792 52.4728 20.896C52.4728 20.8127 52.4063 20.7452 52.3244 20.7452C52.2424 20.7452 52.1759 20.8127 52.1759 20.896C52.1759 20.9792 52.2424 21.0467 52.3244 21.0467Z" fill="#26B9FD"/>
<path opacity="0.5" d="M51.7789 13.2124C51.7789 13.2956 51.7124 13.3631 51.6305 13.3631C51.5486 13.3631 51.4821 13.2956 51.4821 13.2124C51.4821 13.1292 51.5486 13.0616 51.6305 13.0616C51.7124 13.0616 51.7789 13.1292 51.7789 13.2124Z" fill="#26B9FD"/>
<path opacity="0.5" d="M54.8024 16.0649C54.8024 16.1481 54.7359 16.2157 54.6539 16.2157C54.572 16.2157 54.5055 16.1481 54.5055 16.0649C54.5055 15.9817 54.572 15.9141 54.6539 15.9141C54.7359 15.9141 54.8024 15.9817 54.8024 16.0649Z" fill="#26B9FD"/>
<path opacity="0.5" d="M52.6281 11.4432C52.71 11.4432 52.7765 11.3757 52.7765 11.2924C52.7765 11.2092 52.71 11.1417 52.6281 11.1417C52.5461 11.1417 52.4796 11.2092 52.4796 11.2924C52.4796 11.3757 52.5461 11.4432 52.6281 11.4432Z" fill="#26B9FD"/>
<path opacity="0.5" d="M47.9379 23.6036C47.9728 23.3861 47.8274 23.1811 47.6133 23.1457C47.3991 23.1103 47.1973 23.2579 47.1624 23.4754C47.1275 23.6929 47.2728 23.8979 47.487 23.9333C47.7011 23.9688 47.903 23.8212 47.9379 23.6036Z" fill="#26B9FD"/>
<path opacity="0.5" d="M48.6063 10.1222C48.6412 9.9047 48.4959 9.69966 48.2817 9.66423C48.0676 9.62881 47.8657 9.77642 47.8308 9.99392C47.796 10.2114 47.9413 10.4165 48.1554 10.4519C48.3696 10.4873 48.5715 10.3397 48.6063 10.1222Z" fill="#26B9FD"/>
<path opacity="0.5" d="M49.7164 23.6952C49.7984 23.6952 49.8649 23.6277 49.8649 23.5444C49.8649 23.4611 49.7984 23.3936 49.7164 23.3936C49.6345 23.3936 49.568 23.4611 49.568 23.5444C49.568 23.6277 49.6345 23.6952 49.7164 23.6952Z" fill="#26B9FD"/>
<path opacity="0.5" d="M52.1906 22.9823C52.2725 22.9823 52.339 22.9148 52.339 22.8315C52.339 22.7482 52.2725 22.6807 52.1906 22.6807C52.1086 22.6807 52.0421 22.7482 52.0421 22.8315C52.0421 22.9148 52.1086 22.9823 52.1906 22.9823Z" fill="#26B9FD"/>
<path opacity="0.5" d="M48.8136 27.1249C48.8956 27.1249 48.9621 27.0574 48.9621 26.9741C48.9621 26.8908 48.8956 26.8233 48.8136 26.8233C48.7316 26.8233 48.6652 26.8908 48.6652 26.9741C48.6652 27.0574 48.7316 27.1249 48.8136 27.1249Z" fill="#26B9FD"/>
<path opacity="0.5" d="M50.9143 25.7448C50.9491 25.5273 50.8036 25.3223 50.5895 25.287C50.3753 25.2517 50.1735 25.3994 50.1388 25.6169C50.104 25.8345 50.2494 26.0394 50.4636 26.0747C50.6777 26.11 50.8795 25.9623 50.9143 25.7448Z" fill="#26B9FD"/>
<path opacity="0.5" d="M49.5827 30.9286C49.6646 30.9286 49.7311 30.8611 49.7311 30.7778C49.7311 30.6945 49.6646 30.627 49.5827 30.627C49.5007 30.627 49.4342 30.6945 49.4342 30.7778C49.4342 30.8611 49.5007 30.9286 49.5827 30.9286Z" fill="#26B9FD"/>
<path opacity="0.5" d="M47.5431 25.9706C47.6251 25.9706 47.6915 25.9031 47.6915 25.8198C47.6915 25.7365 47.6251 25.669 47.5431 25.669C47.4611 25.669 47.3947 25.7365 47.3947 25.8198C47.3947 25.9031 47.4611 25.9706 47.5431 25.9706Z" fill="#26B9FD"/>
<path opacity="0.5" d="M48.3453 30.6229C48.4273 30.6229 48.4938 30.5554 48.4938 30.4721C48.4938 30.3889 48.4273 30.3214 48.3453 30.3214C48.2634 30.3214 48.1969 30.3889 48.1969 30.4721C48.1969 30.5554 48.2634 30.6229 48.3453 30.6229Z" fill="#26B9FD"/>
<path opacity="0.5" d="M49.0475 29.0604C49.1295 29.0604 49.1959 28.9929 49.1959 28.9096C49.1959 28.8264 49.1295 28.7589 49.0475 28.7589C48.9655 28.7589 48.899 28.8264 48.899 28.9096C48.899 28.9929 48.9655 29.0604 49.0475 29.0604Z" fill="#26B9FD"/>
</g>
<path opacity="0.5" d="M39.1624 18.9739C39.3473 18.9739 39.4971 18.8217 39.4971 18.634C39.4971 18.4463 39.3473 18.2941 39.1624 18.2941C38.9776 18.2941 38.8278 18.4463 38.8278 18.634C38.8278 18.8217 38.9776 18.9739 39.1624 18.9739Z" fill="white"/>
<path opacity="0.5" d="M42.471 9.36742C42.6559 9.36742 42.8057 9.21523 42.8057 9.02749C42.8057 8.83975 42.6559 8.68756 42.471 8.68756C42.2862 8.68756 42.1364 8.83975 42.1364 9.02749C42.1364 9.21523 42.2862 9.36742 42.471 9.36742Z" fill="white"/>
<path opacity="0.5" d="M53.7087 25.6299C53.8935 25.6299 54.0434 25.4777 54.0434 25.29C54.0434 25.1023 53.8935 24.9501 53.7087 24.9501C53.5239 24.9501 53.374 25.1023 53.374 25.29C53.374 25.4777 53.5239 25.6299 53.7087 25.6299Z" fill="white"/>
<path opacity="0.5" d="M60.7977 18.259C60.9825 18.259 61.1324 18.1068 61.1324 17.9191C61.1324 17.7314 60.9825 17.5792 60.7977 17.5792C60.6129 17.5792 60.463 17.7314 60.463 17.9191C60.463 18.1068 60.6129 18.259 60.7977 18.259Z" fill="white"/>
<path opacity="0.5" d="M57.2253 11.7719C57.5424 11.7719 57.7994 11.5108 57.7994 11.1888C57.7994 10.8668 57.5424 10.6057 57.2253 10.6057C56.9083 10.6057 56.6512 10.8668 56.6512 11.1888C56.6512 11.5108 56.9083 11.7719 57.2253 11.7719Z" fill="white"/>
<path opacity="0.5" d="M45.0218 26.2725C45.3389 26.2725 45.5959 26.0114 45.5959 25.6894C45.5959 25.3673 45.3389 25.1063 45.0218 25.1063C44.7048 25.1063 44.4478 25.3673 44.4478 25.6894C44.4478 26.0114 44.7048 26.2725 45.0218 26.2725Z" fill="white"/>
</g>
<defs>
<linearGradient id="paint0_linear_161_6387" x1="49.0001" y1="38.5433" x2="49.0001" y2="50.2433" gradientUnits="userSpaceOnUse">
<stop stop-color="#01BCFD"/>
<stop offset="1" stop-color="#027DFD"/>
</linearGradient>
<linearGradient id="paint1_linear_161_6387" x1="49.0001" y1="47.5272" x2="49.0001" y2="59.9233" gradientUnits="userSpaceOnUse">
<stop stop-color="#01BCFD"/>
<stop offset="1" stop-color="#027DFD"/>
</linearGradient>
<linearGradient id="paint2_linear_161_6387" x1="48.0289" y1="62.1422" x2="48.0289" y2="65.4151" gradientUnits="userSpaceOnUse">
<stop stop-color="#01BCFD"/>
<stop offset="1" stop-color="#027DFD"/>
</linearGradient>
<linearGradient id="paint3_linear_161_6387" x1="47.3762" y1="62.1422" x2="47.3762" y2="65.4152" gradientUnits="userSpaceOnUse">
<stop stop-color="#01BCFD"/>
<stop offset="1" stop-color="#027DFD"/>
</linearGradient>
<linearGradient id="paint4_linear_161_6387" x1="48.0288" y1="62.1422" x2="48.0288" y2="65.4151" gradientUnits="userSpaceOnUse">
<stop stop-color="#01BCFD"/>
<stop offset="1" stop-color="#027DFD"/>
</linearGradient>
<linearGradient id="paint5_linear_161_6387" x1="50.7023" y1="62.1422" x2="50.7023" y2="65.4152" gradientUnits="userSpaceOnUse">
<stop stop-color="#01BCFD"/>
<stop offset="1" stop-color="#027DFD"/>
</linearGradient>
<linearGradient id="paint6_linear_161_6387" x1="51.0314" y1="62.1426" x2="51.0314" y2="65.4156" gradientUnits="userSpaceOnUse">
<stop stop-color="#01BCFD"/>
<stop offset="1" stop-color="#027DFD"/>
</linearGradient>
<linearGradient id="paint7_linear_161_6387" x1="51.0302" y1="62.1422" x2="51.0302" y2="65.4152" gradientUnits="userSpaceOnUse">
<stop stop-color="#01BCFD"/>
<stop offset="1" stop-color="#027DFD"/>
</linearGradient>
<linearGradient id="paint8_linear_161_6387" x1="50.7023" y1="62.1419" x2="50.7023" y2="65.4148" gradientUnits="userSpaceOnUse">
<stop stop-color="#01BCFD"/>
<stop offset="1" stop-color="#027DFD"/>
</linearGradient>
<linearGradient id="paint9_linear_161_6387" x1="49.4094" y1="62.1422" x2="49.4094" y2="65.4151" gradientUnits="userSpaceOnUse">
<stop stop-color="#01BCFD"/>
<stop offset="1" stop-color="#027DFD"/>
</linearGradient>
<linearGradient id="paint10_linear_161_6387" x1="49.4077" y1="62.1422" x2="49.4077" y2="65.4152" gradientUnits="userSpaceOnUse">
<stop stop-color="#01BCFD"/>
<stop offset="1" stop-color="#027DFD"/>
</linearGradient>
<linearGradient id="paint11_linear_161_6387" x1="50.06" y1="62.1422" x2="50.06" y2="65.4151" gradientUnits="userSpaceOnUse">
<stop stop-color="#01BCFD"/>
<stop offset="1" stop-color="#027DFD"/>
</linearGradient>
<linearGradient id="paint12_linear_161_6387" x1="49.4077" y1="62.1423" x2="49.4077" y2="65.4153" gradientUnits="userSpaceOnUse">
<stop stop-color="#01BCFD"/>
<stop offset="1" stop-color="#027DFD"/>
</linearGradient>
<linearGradient id="paint13_linear_161_6387" x1="48.7587" y1="62.1426" x2="48.7587" y2="65.4156" gradientUnits="userSpaceOnUse">
<stop stop-color="#01BCFD"/>
<stop offset="1" stop-color="#027DFD"/>
</linearGradient>
<clipPath id="clip0_161_6387">
<rect width="26.5417" height="60.6857" fill="white" transform="translate(35.7291 8.22858)"/>
</clipPath>
</defs>
</svg>
