<svg width="16" height="16" viewBox="0 0 16 16" fill="none" xmlns="http://www.w3.org/2000/svg">
<path d="M8.57756 2.0003L14.9282 13.0003C14.9867 13.1016 15.0175 13.2166 15.0175 13.3336C15.0175 13.4506 14.9867 13.5656 14.9282 13.667C14.8697 13.7683 14.7856 13.8525 14.6842 13.911C14.5829 13.9695 14.4679 14.0003 14.3509 14.0003H1.64956C1.53254 14.0003 1.41758 13.9695 1.31623 13.911C1.21489 13.8525 1.13073 13.7683 1.07222 13.667C1.01371 13.5656 0.982909 13.4506 0.98291 13.3336C0.982911 13.2166 1.01372 13.1016 1.07223 13.0003L7.42289 2.0003C7.48141 1.89896 7.56557 1.81481 7.66691 1.7563C7.76825 1.69779 7.88321 1.66699 8.00023 1.66699C8.11725 1.66699 8.2322 1.69779 8.33355 1.7563C8.43489 1.81481 8.51905 1.89896 8.57756 2.0003ZM7.33356 10.667V12.0003H8.66689V10.667H7.33356ZM7.33356 6.0003V9.33363H8.66689V6.0003H7.33356Z" fill="#FFA05B"/>
</svg>
