<svg width="78" height="30" viewBox="0 0 78 30" fill="none" xmlns="http://www.w3.org/2000/svg">
<rect width="78" height="30" rx="15" fill="#FDE3E5"/>
<g clip-path="url(#clip0_156_2096)">
<path d="M21 18.21C20.6044 18.21 20.2178 18.3273 19.8889 18.547C19.56 18.7668 19.3036 19.0791 19.1522 19.4446C19.0009 19.81 18.9613 20.2122 19.0384 20.6001C19.1156 20.9881 19.3061 21.3445 19.5858 21.6242C19.8655 21.9039 20.2219 22.0944 20.6098 22.1715C20.9978 22.2487 21.3999 22.2091 21.7654 22.0577C22.1308 21.9063 22.4432 21.65 22.6629 21.3211C22.8827 20.9922 23 20.6055 23 20.21C23 19.6795 22.7893 19.1708 22.4142 18.7957C22.0391 18.4207 21.5304 18.21 21 18.21ZM21 21.21C20.8022 21.21 20.6089 21.1513 20.4444 21.0414C20.28 20.9315 20.1518 20.7754 20.0761 20.5926C20.0004 20.4099 19.9806 20.2089 20.0192 20.0149C20.0578 19.8209 20.153 19.6427 20.2929 19.5029C20.4327 19.363 20.6109 19.2678 20.8049 19.2292C20.9989 19.1906 21.2 19.2104 21.3827 19.2861C21.5654 19.3618 21.7216 19.4899 21.8315 19.6544C21.9414 19.8188 22 20.0122 22 20.21C22 20.4752 21.8946 20.7295 21.7071 20.9171C21.5196 21.1046 21.2652 21.21 21 21.21Z" fill="black"/>
<path d="M25.1052 16.9254C25.1439 16.8719 25.1715 16.8114 25.1866 16.7472C25.2018 16.683 25.2041 16.6165 25.1934 16.5514C25.1827 16.4864 25.1592 16.4241 25.1244 16.3681C25.0895 16.3121 25.0439 16.2636 24.9902 16.2254C24.2411 15.6881 23.3905 15.3087 22.4902 15.1104L24.4252 17.0454C24.5323 17.1166 24.6626 17.1439 24.7893 17.1216C24.9159 17.0992 25.0291 17.029 25.1052 16.9254Z" fill="black"/>
<path d="M21.0253 11.3604C20.3266 11.3626 19.6298 11.4347 18.9453 11.5754L19.8153 12.4454C20.2164 12.3913 20.6206 12.3629 21.0253 12.3604C22.9152 12.3611 24.7608 12.9327 26.3203 14.0004C26.4297 14.063 26.5586 14.082 26.6814 14.0537C26.8042 14.0253 26.9118 13.9516 26.9826 13.8473C27.0534 13.743 27.0821 13.6159 27.0632 13.4913C27.0442 13.3667 26.9789 13.2539 26.8803 13.1754C25.156 11.9944 23.1152 11.3618 21.0253 11.3604Z" fill="black"/>
<path d="M28.7747 10.1002C26.9182 8.8735 24.7971 8.10512 22.5857 7.85826C20.3743 7.61139 18.1359 7.89309 16.0547 8.68017L16.8447 9.46517C18.7276 8.82315 20.7327 8.62181 22.7057 8.87666C24.6786 9.13152 26.5667 9.83576 28.2247 10.9352C28.3354 11.0055 28.4693 11.0295 28.5976 11.002C28.7259 10.9745 28.8382 10.8977 28.9103 10.7882C28.9825 10.6786 29.0087 10.5451 28.9833 10.4164C28.9579 10.2877 28.883 10.1741 28.7747 10.1002Z" fill="black"/>
<path d="M12.9199 8.37531L14.1349 9.59031C13.8249 9.76031 13.5199 9.94031 13.2199 10.1403C13.1654 10.1771 13.1187 10.2242 13.0824 10.2791C13.0461 10.3339 13.021 10.3953 13.0085 10.4599C12.9832 10.5902 13.0107 10.7252 13.0849 10.8353C13.1592 10.9454 13.2741 11.0214 13.4045 11.0468C13.5348 11.0721 13.6699 11.0446 13.7799 10.9703C14.1299 10.7353 14.4999 10.5003 14.8699 10.3253L16.8049 12.2603C16.2134 12.52 15.6475 12.8347 15.1149 13.2003C15.0363 13.2843 14.989 13.3929 14.9811 13.5077C14.9732 13.6225 15.0051 13.7365 15.0715 13.8305C15.1379 13.9245 15.2346 13.9927 15.3455 14.0237C15.4563 14.0546 15.5745 14.0464 15.6799 14.0003C16.2683 13.5965 16.9007 13.261 17.5649 13.0003L19.6449 15.0803C18.687 15.2821 17.7845 15.6899 16.9999 16.2753C16.9022 16.3568 16.8392 16.4724 16.8237 16.5987C16.8083 16.725 16.8415 16.8524 16.9167 16.955C16.9919 17.0576 17.1034 17.1277 17.2285 17.151C17.3536 17.1743 17.4828 17.149 17.5899 17.0803C18.4426 16.4604 19.4493 16.0867 20.4999 16.0003L25.8999 21.4003L26.6049 20.6953L13.6049 7.69531L12.9199 8.37531Z" fill="black"/>
</g>
<path d="M37.94 18.62C37.2467 18.62 36.64 18.4667 36.12 18.16C35.6 17.8533 35.1933 17.43 34.9 16.89C34.6067 16.3433 34.46 15.7133 34.46 15C34.46 14.2867 34.6067 13.66 34.9 13.12C35.1933 12.5733 35.6 12.1467 36.12 11.84C36.64 11.5333 37.2467 11.38 37.94 11.38C38.6333 11.38 39.24 11.5333 39.76 11.84C40.28 12.1467 40.6833 12.5733 40.97 13.12C41.2633 13.66 41.41 14.2867 41.41 15C41.41 15.7133 41.2633 16.3433 40.97 16.89C40.6833 17.43 40.28 17.8533 39.76 18.16C39.24 18.4667 38.6333 18.62 37.94 18.62ZM37.94 17.67C38.42 17.67 38.8367 17.5633 39.19 17.35C39.55 17.1367 39.83 16.83 40.03 16.43C40.23 16.03 40.33 15.5533 40.33 15C40.33 14.4467 40.23 13.97 40.03 13.57C39.83 13.17 39.55 12.8633 39.19 12.65C38.8367 12.4367 38.42 12.33 37.94 12.33C37.46 12.33 37.04 12.4367 36.68 12.65C36.32 12.8633 36.04 13.17 35.84 13.57C35.6467 13.97 35.55 14.4467 35.55 15C35.55 15.5533 35.6467 16.03 35.84 16.43C36.04 16.83 36.32 17.1367 36.68 17.35C37.04 17.5633 37.46 17.67 37.94 17.67ZM42.8009 18.5V14.43H42.0909V13.54H42.8009V12.82C42.8009 12.28 42.9342 11.8933 43.2009 11.66C43.4742 11.42 43.8575 11.3 44.3509 11.3H44.8709V12.2H44.5109C44.2775 12.2 44.1109 12.25 44.0109 12.35C43.9109 12.4433 43.8609 12.6033 43.8609 12.83V13.54H45.0009V14.43H43.8609V18.5H42.8009ZM46.2579 18.5V14.43H45.5479V13.54H46.2579V12.82C46.2579 12.28 46.3912 11.8933 46.6579 11.66C46.9312 11.42 47.3146 11.3 47.8079 11.3H48.3279V12.2H47.9679C47.7346 12.2 47.5679 12.25 47.4679 12.35C47.3679 12.4433 47.3179 12.6033 47.3179 12.83V13.54H48.4579V14.43H47.3179V18.5H46.2579ZM49.4679 18.5V11.3H50.5279V18.5H49.4679ZM52.477 12.6C52.277 12.6 52.1104 12.54 51.977 12.42C51.8504 12.2933 51.787 12.1367 51.787 11.95C51.787 11.7633 51.8504 11.61 51.977 11.49C52.1104 11.3633 52.277 11.3 52.477 11.3C52.677 11.3 52.8404 11.3633 52.967 11.49C53.1004 11.61 53.167 11.7633 53.167 11.95C53.167 12.1367 53.1004 12.2933 52.967 12.42C52.8404 12.54 52.677 12.6 52.477 12.6ZM51.947 18.5V13.54H53.007V18.5H51.947ZM54.4063 18.5V13.54H55.3463L55.4263 14.41C55.5797 14.1033 55.803 13.8633 56.0963 13.69C56.3963 13.51 56.7397 13.42 57.1263 13.42C57.7263 13.42 58.1963 13.6067 58.5363 13.98C58.883 14.3533 59.0563 14.91 59.0563 15.65V18.5H58.0063V15.76C58.0063 14.8 57.613 14.32 56.8263 14.32C56.433 14.32 56.1063 14.46 55.8463 14.74C55.593 15.02 55.4663 15.42 55.4663 15.94V18.5H54.4063ZM62.6248 18.62C62.1381 18.62 61.7048 18.5133 61.3248 18.3C60.9514 18.08 60.6581 17.7767 60.4448 17.39C60.2314 17.0033 60.1248 16.5533 60.1248 16.04C60.1248 15.52 60.2281 15.0633 60.4348 14.67C60.6481 14.2767 60.9414 13.97 61.3148 13.75C61.6948 13.53 62.1348 13.42 62.6348 13.42C63.1214 13.42 63.5448 13.53 63.9048 13.75C64.2648 13.9633 64.5448 14.25 64.7448 14.61C64.9448 14.97 65.0448 15.3667 65.0448 15.8C65.0448 15.8667 65.0414 15.94 65.0348 16.02C65.0348 16.0933 65.0314 16.1767 65.0248 16.27H61.1648C61.1981 16.75 61.3548 17.1167 61.6348 17.37C61.9214 17.6167 62.2514 17.74 62.6248 17.74C62.9248 17.74 63.1748 17.6733 63.3748 17.54C63.5814 17.4 63.7348 17.2133 63.8348 16.98H64.8948C64.7614 17.4467 64.4948 17.8367 64.0948 18.15C63.7014 18.4633 63.2114 18.62 62.6248 18.62ZM62.6248 14.29C62.2714 14.29 61.9581 14.3967 61.6848 14.61C61.4114 14.8167 61.2448 15.13 61.1848 15.55H63.9848C63.9648 15.1633 63.8281 14.8567 63.5748 14.63C63.3214 14.4033 63.0048 14.29 62.6248 14.29Z" fill="#1C1C1C"/>
<defs>
<clipPath id="clip0_156_2096">
<rect width="18" height="18" fill="white" transform="translate(12 6)"/>
</clipPath>
</defs>
</svg>
