<svg width="20" height="20" viewBox="0 0 20 20" fill="none" xmlns="http://www.w3.org/2000/svg">
<path d="M6.46675 13.5333C5.55841 12.6333 5.00008 11.3833 5.00008 10C5.00008 8.61667 5.55841 7.36667 6.46675 6.46667L7.65008 7.65C7.04175 8.25 6.66675 9.08334 6.66675 10C6.66675 10.9167 7.04175 11.75 7.64175 12.3583L6.46675 13.5333ZM13.5334 13.5333C14.4417 12.6333 15.0001 11.3833 15.0001 10C15.0001 8.61667 14.4417 7.36667 13.5334 6.46667L12.3501 7.65C12.9584 8.25 13.3334 9.08334 13.3334 10C13.3334 10.9167 12.9584 11.75 12.3584 12.3583L13.5334 13.5333ZM10.0001 8.33334C9.08341 8.33334 8.33341 9.08334 8.33341 10C8.33341 10.9167 9.08341 11.6667 10.0001 11.6667C10.9167 11.6667 11.6667 10.9167 11.6667 10C11.6667 9.08334 10.9167 8.33334 10.0001 8.33334ZM16.6667 10C16.6667 11.8417 15.9167 13.5083 14.7084 14.7083L15.8917 15.8917C17.4001 14.3833 18.3334 12.3 18.3334 10C18.3334 7.7 17.4001 5.61667 15.8917 4.10834L14.7084 5.29167C15.33 5.90793 15.8232 6.6414 16.1594 7.4496C16.4955 8.25781 16.668 9.12468 16.6667 10ZM5.29175 5.29167L4.10841 4.10834C2.60008 5.61667 1.66675 7.7 1.66675 10C1.66675 12.3 2.60008 14.3833 4.10841 15.8917L5.29175 14.7083C4.08341 13.5083 3.33341 11.8417 3.33341 10C3.33341 8.15834 4.08341 6.49167 5.29175 5.29167Z" fill="#3983F9"/>
</svg>
