<svg width="77" height="30" viewBox="0 0 77 30" fill="none" xmlns="http://www.w3.org/2000/svg">
<rect width="77" height="30" rx="15" fill="#D3FAC7"/>
<path d="M18.1875 16.875C19.6875 15.375 22.3125 15.375 23.8125 16.875M25.875 14.625C23.049 12.1252 19.125 12.1252 16.125 14.625" stroke="black" stroke-linecap="round" stroke-linejoin="round"/>
<path d="M13.5 12.375C18.237 8.37525 23.763 8.37525 28.5 12.375" stroke="black" stroke-linecap="round" stroke-linejoin="round"/>
<path d="M21 20.625C21.6213 20.625 22.125 20.1213 22.125 19.5C22.125 18.8787 21.6213 18.375 21 18.375C20.3787 18.375 19.875 18.8787 19.875 19.5C19.875 20.1213 20.3787 20.625 21 20.625Z" stroke="black" stroke-linecap="round" stroke-linejoin="round"/>
<path d="M37.94 18.62C37.2467 18.62 36.64 18.4667 36.12 18.16C35.6 17.8533 35.1933 17.43 34.9 16.89C34.6067 16.3433 34.46 15.7133 34.46 15C34.46 14.2867 34.6067 13.66 34.9 13.12C35.1933 12.5733 35.6 12.1467 36.12 11.84C36.64 11.5333 37.2467 11.38 37.94 11.38C38.6333 11.38 39.24 11.5333 39.76 11.84C40.28 12.1467 40.6833 12.5733 40.97 13.12C41.2633 13.66 41.41 14.2867 41.41 15C41.41 15.7133 41.2633 16.3433 40.97 16.89C40.6833 17.43 40.28 17.8533 39.76 18.16C39.24 18.4667 38.6333 18.62 37.94 18.62ZM37.94 17.67C38.42 17.67 38.8367 17.5633 39.19 17.35C39.55 17.1367 39.83 16.83 40.03 16.43C40.23 16.03 40.33 15.5533 40.33 15C40.33 14.4467 40.23 13.97 40.03 13.57C39.83 13.17 39.55 12.8633 39.19 12.65C38.8367 12.4367 38.42 12.33 37.94 12.33C37.46 12.33 37.04 12.4367 36.68 12.65C36.32 12.8633 36.04 13.17 35.84 13.57C35.6467 13.97 35.55 14.4467 35.55 15C35.55 15.5533 35.6467 16.03 35.84 16.43C36.04 16.83 36.32 17.1367 36.68 17.35C37.04 17.5633 37.46 17.67 37.94 17.67ZM42.5509 18.5V13.54H43.4909L43.5709 14.41C43.7242 14.1033 43.9475 13.8633 44.2409 13.69C44.5409 13.51 44.8842 13.42 45.2709 13.42C45.8709 13.42 46.3409 13.6067 46.6809 13.98C47.0275 14.3533 47.2009 14.91 47.2009 15.65V18.5H46.1509V15.76C46.1509 14.8 45.7575 14.32 44.9709 14.32C44.5775 14.32 44.2509 14.46 43.9909 14.74C43.7375 15.02 43.6109 15.42 43.6109 15.94V18.5H42.5509ZM48.4493 18.5V11.3H49.5093V18.5H48.4493ZM51.4516 12.6C51.2516 12.6 51.085 12.54 50.9516 12.42C50.825 12.2933 50.7616 12.1367 50.7616 11.95C50.7616 11.7633 50.825 11.61 50.9516 11.49C51.085 11.3633 51.2516 11.3 51.4516 11.3C51.6516 11.3 51.815 11.3633 51.9416 11.49C52.075 11.61 52.1416 11.7633 52.1416 11.95C52.1416 12.1367 52.075 12.2933 51.9416 12.42C51.815 12.54 51.6516 12.6 51.4516 12.6ZM50.9216 18.5V13.54H51.9816V18.5H50.9216ZM53.3809 18.5V13.54H54.3209L54.4009 14.41C54.5543 14.1033 54.7776 13.8633 55.0709 13.69C55.3709 13.51 55.7143 13.42 56.1009 13.42C56.7009 13.42 57.1709 13.6067 57.5109 13.98C57.8576 14.3533 58.0309 14.91 58.0309 15.65V18.5H56.9809V15.76C56.9809 14.8 56.5876 14.32 55.8009 14.32C55.4076 14.32 55.0809 14.46 54.8209 14.74C54.5676 15.02 54.4409 15.42 54.4409 15.94V18.5H53.3809ZM61.5994 18.62C61.1127 18.62 60.6794 18.5133 60.2994 18.3C59.926 18.08 59.6327 17.7767 59.4194 17.39C59.206 17.0033 59.0994 16.5533 59.0994 16.04C59.0994 15.52 59.2027 15.0633 59.4094 14.67C59.6227 14.2767 59.916 13.97 60.2894 13.75C60.6694 13.53 61.1094 13.42 61.6094 13.42C62.096 13.42 62.5194 13.53 62.8794 13.75C63.2394 13.9633 63.5194 14.25 63.7194 14.61C63.9194 14.97 64.0194 15.3667 64.0194 15.8C64.0194 15.8667 64.016 15.94 64.0094 16.02C64.0094 16.0933 64.006 16.1767 63.9994 16.27H60.1394C60.1727 16.75 60.3294 17.1167 60.6094 17.37C60.896 17.6167 61.226 17.74 61.5994 17.74C61.8994 17.74 62.1494 17.6733 62.3494 17.54C62.556 17.4 62.7094 17.2133 62.8094 16.98H63.8694C63.736 17.4467 63.4694 17.8367 63.0694 18.15C62.676 18.4633 62.186 18.62 61.5994 18.62ZM61.5994 14.29C61.246 14.29 60.9327 14.3967 60.6594 14.61C60.386 14.8167 60.2194 15.13 60.1594 15.55H62.9594C62.9394 15.1633 62.8027 14.8567 62.5494 14.63C62.296 14.4033 61.9794 14.29 61.5994 14.29Z" fill="#1C1C1C"/>
</svg>
