<svg width="30" height="30" viewBox="0 0 30 30" fill="none" xmlns="http://www.w3.org/2000/svg">
<path d="M18.5789 16.7497V6.1734C18.5712 5.2234 18.1948 4.31354 17.5289 3.6359C17.1649 3.27526 16.7276 2.99709 16.2466 2.82024C15.7657 2.64339 15.2523 2.572 14.7414 2.6109C13.8166 2.70203 12.9604 3.13893 12.3439 3.83422C11.7274 4.5295 11.3962 5.4319 11.4164 6.3609L11.4289 16.7109C10.5137 17.3983 9.8164 18.3354 9.42085 19.4095C9.02531 20.4836 8.94833 21.6491 9.19914 22.7659C9.44996 23.8827 10.0179 24.9033 10.8348 25.7051C11.6516 26.507 12.6826 27.0559 13.8039 27.2859C14.1952 27.3612 14.5929 27.3988 14.9914 27.3984C16.5673 27.3984 18.0788 26.7733 19.1943 25.6601C20.3097 24.547 20.9381 23.0368 20.9414 21.4609C20.9437 20.5455 20.7311 19.6424 20.3208 18.8242C19.9104 18.0059 19.3138 17.2954 18.5789 16.7497ZM17.9789 25.0747C17.4361 25.5193 16.8012 25.8375 16.1201 26.0062C15.439 26.1748 14.7289 26.1897 14.0414 26.0497C13.1289 25.8679 12.2925 25.4152 11.6413 24.7507C10.9901 24.0861 10.5545 23.2406 10.3914 22.3247C10.2296 21.4656 10.3113 20.5785 10.6272 19.7634C10.943 18.9484 11.4805 18.2379 12.1789 17.7122C12.3296 17.6009 12.4523 17.4559 12.5369 17.2888C12.6216 17.1216 12.6659 16.937 12.6664 16.7497V6.3609C12.6526 5.7502 12.8662 5.15615 13.2658 4.69415C13.6655 4.23214 14.2226 3.93517 14.8289 3.8609C14.8867 3.85089 14.9453 3.8467 15.0039 3.8484C15.6185 3.85491 16.2061 4.10195 16.6407 4.53657C17.0753 4.97119 17.3224 5.55879 17.3289 6.1734V16.7497C17.3294 16.937 17.3737 17.1216 17.4584 17.2888C17.543 17.4559 17.6656 17.6009 17.8164 17.7122C18.3845 18.1373 18.8484 18.6861 19.173 19.317C19.4976 19.948 19.6745 20.6445 19.6901 21.3538C19.7058 22.0632 19.5598 22.7669 19.2634 23.4115C18.9669 24.0561 18.5277 24.6249 17.9789 25.0747Z" fill="#3983F9"/>
<path d="M17.3661 21.4612C17.3661 22.0878 17.1172 22.6887 16.6742 23.1318C16.2311 23.5748 15.6302 23.8237 15.0036 23.8237C14.3771 23.8237 13.7762 23.5748 13.3331 23.1318C12.8901 22.6887 12.6411 22.0878 12.6411 21.4612C12.6383 20.9447 12.8075 20.4419 13.1221 20.0322C13.4368 19.6225 13.8789 19.3293 14.3786 19.1987V6.75C14.3786 6.58424 14.4445 6.42527 14.5617 6.30806C14.6789 6.19085 14.8379 6.125 15.0036 6.125C15.1694 6.125 15.3284 6.19085 15.4456 6.30806C15.5628 6.42527 15.6286 6.58424 15.6286 6.75V19.2C16.1272 19.3324 16.5679 19.626 16.8822 20.035C17.1964 20.444 17.3666 20.9454 17.3661 21.4612Z" fill="#3983F9"/>
</svg>
